<?xml version="1.0" encoding="UTF-8"?>
<svg version="1.1" xmlns="http://www.w3.org/2000/svg" width="750" height="751">
<path d="M0 0 C247.5 0 495 0 750 0 C750 247.83 750 495.66 750 751 C502.5 751 255 751 0 751 C0 503.17 0 255.34 0 0 Z " fill="#91B8D5" transform="translate(0,0)"/>
<path d="M0 0 C0.96388641 0.00115814 1.92777283 0.00231628 2.92086792 0.00350952 C15.765845 0.03391922 28.52229345 0.41259096 41.3125 1.625 C43.20597168 1.80131958 43.20597168 1.80131958 45.13769531 1.98120117 C51.59025399 2.66890577 57.66315165 3.76244389 63.87597656 5.6484375 C67.31710069 6.6109897 70.69765223 6.97737285 74.25 7.3125 C74.25 7.9725 74.25 8.6325 74.25 9.3125 C76.0753125 9.250625 76.0753125 9.250625 77.9375 9.1875 C81.46894127 9.17495492 84.05003566 9.71251783 87.25 11.3125 C87.25 11.9725 87.25 12.6325 87.25 13.3125 C88.301875 13.250625 89.35375 13.18875 90.4375 13.125 C94.58324651 13.32888917 95.83894128 14.14938959 99.25 16.3125 C101.23459116 16.92028104 103.22726629 17.38411311 105.25 17.84765625 C107.99907388 18.48660116 110.62110526 19.28658986 113.25 20.3125 C113.58 20.9725 113.91 21.6325 114.25 22.3125 C115.98675479 23.23398477 117.76538741 24.07760567 119.5625 24.875 C121.01076172 25.52662109 121.01076172 25.52662109 122.48828125 26.19140625 C124.75525177 27.11166161 126.86398118 27.80809222 129.25 28.3125 C129.25 28.9725 129.25 29.6325 129.25 30.3125 C131.23 30.6425 133.21 30.9725 135.25 31.3125 C135.25 31.9725 135.25 32.6325 135.25 33.3125 C136.52875 33.621875 137.8075 33.93125 139.125 34.25 C141.35101675 34.78855244 143.19739999 35.2862 145.25 36.3125 C145.25 36.9725 145.25 37.6325 145.25 38.3125 C146.013125 38.60125 146.77625 38.89 147.5625 39.1875 C150.25 40.3125 150.25 40.3125 153.25 42.3125 C153.25 42.9725 153.25 43.6325 153.25 44.3125 C153.86875 44.621875 154.4875 44.93125 155.125 45.25 C156.5 45.9375 157.875 46.625 159.25 47.3125 C159.25 47.9725 159.25 48.6325 159.25 49.3125 C159.9925 49.580625 160.735 49.84875 161.5 50.125 C164.14061949 51.26526751 166.10552844 52.40630306 168.25 54.3125 C168.25 54.9725 168.25 55.6325 168.25 56.3125 C169.24 56.3125 170.23 56.3125 171.25 56.3125 C172.60824882 57.62044331 173.93456137 58.96150897 175.25 60.3125 C177.35445969 61.89589385 179.48757319 63.42874681 181.640625 64.9453125 C182.17171875 65.39648438 182.7028125 65.84765625 183.25 66.3125 C183.25 66.9725 183.25 67.6325 183.25 68.3125 C183.91 68.3125 184.57 68.3125 185.25 68.3125 C185.58 69.6325 185.91 70.9525 186.25 72.3125 C186.889375 72.415625 187.52875 72.51875 188.1875 72.625 C189.2084375 72.9653125 189.2084375 72.9653125 190.25 73.3125 C190.58 74.3025 190.91 75.2925 191.25 76.3125 C191.91 76.3125 192.57 76.3125 193.25 76.3125 C193.25 76.9725 193.25 77.6325 193.25 78.3125 C193.91 78.3125 194.57 78.3125 195.25 78.3125 C196.5390625 79.9921875 196.5390625 79.9921875 197.875 82.1875 C198.32101562 82.90679688 198.76703125 83.62609375 199.2265625 84.3671875 C200.25 86.3125 200.25 86.3125 200.25 88.3125 C200.91 88.3125 201.57 88.3125 202.25 88.3125 C203.9765625 89.9921875 203.9765625 89.9921875 205.875 92.1875 C206.82246094 93.26644531 206.82246094 93.26644531 207.7890625 94.3671875 C209.25 96.3125 209.25 96.3125 209.25 98.3125 C209.91 98.3125 210.57 98.3125 211.25 98.3125 C214.51721831 102.75373269 217.13749547 107.60397624 218.9375 112.8125 C219.94263137 116.52958544 219.94263137 116.52958544 223.25 118.3125 C224.00704983 120.22158217 224.75544483 122.13555196 225.421875 124.078125 C226.53105777 127.07082569 227.98359163 129.83408426 229.48046875 132.6484375 C230.25 134.3125 230.25 134.3125 230.25 136.3125 C231.24 136.6425 232.23 136.9725 233.25 137.3125 C235.86839506 142.44884018 237.34360404 147.8191443 238.8125 153.375 C239.22899102 154.92878228 239.64693091 156.482177 240.06640625 158.03515625 C240.26395508 158.76798828 240.46150391 159.50082031 240.66503906 160.25585938 C241.1824867 162.07513272 241.78264306 163.87043549 242.39453125 165.66015625 C243.36313202 168.66326092 243.39932376 171.17670099 243.25 174.3125 C243.91 174.3125 244.57 174.3125 245.25 174.3125 C245.29898437 175.00214844 245.34796875 175.69179688 245.3984375 176.40234375 C245.76637257 181.02690698 246.20067902 185.48963404 247.3125 190 C248.33641297 194.20183544 248.40693195 197.99687124 248.25 202.3125 C248.91 202.3125 249.57 202.3125 250.25 202.3125 C252.42213194 221.86168749 251.25 241.64300868 251.25 261.3125 C89.88 261.3125 -71.49 261.3125 -237.75 261.3125 C-237.75 205.3125 -237.75 205.3125 -236.75 202.3125 C-236.43406507 199.83384688 -236.14572738 197.3585034 -235.875 194.875 C-235.06323691 187.84932655 -233.68526275 181.1246249 -231.75 174.3125 C-231.09 174.3125 -230.43 174.3125 -229.75 174.3125 C-229.62625 173.1575 -229.5025 172.0025 -229.375 170.8125 C-228.51184705 164.14056097 -226.85055567 158.41263314 -224.1875 152.25 C-222.29294803 147.86436075 -221.33217791 144.06695297 -220.75 139.3125 C-219.79060332 137.62213442 -218.78357147 135.95855826 -217.75 134.3125 C-217.14892556 132.7776634 -216.56780558 131.23495298 -216 129.6875 C-214.02685777 124.56654331 -211.29148827 120.20400823 -208.23828125 115.66015625 C-206.61430957 113.30686579 -206.61430957 113.30686579 -205.75 110.3125 C-205.09 110.3125 -204.43 110.3125 -203.75 110.3125 C-203.48316406 109.58417969 -203.21632812 108.85585938 -202.94140625 108.10546875 C-201.76267785 105.34222021 -200.39194609 103.09163082 -198.6875 100.625 C-196.5677976 97.55749911 -196.5677976 97.55749911 -194.75 94.3125 C-194.09 94.3125 -193.43 94.3125 -192.75 94.3125 C-192.5025 93.59320312 -192.255 92.87390625 -192 92.1328125 C-190.61879113 89.01645999 -188.92636006 86.80393287 -186.75 84.1875 C-184.61263907 81.60223622 -182.61241106 79.10611659 -180.75 76.3125 C-180.09 76.3125 -179.43 76.3125 -178.75 76.3125 C-178.48574219 75.73371094 -178.22148437 75.15492188 -177.94921875 74.55859375 C-174.47247683 68.04678071 -168.92378564 63.18624785 -162.75 59.3125 C-162.09 59.3125 -161.43 59.3125 -160.75 59.3125 C-160.37488281 58.39984375 -160.37488281 58.39984375 -159.9921875 57.46875 C-158.55340753 54.97124515 -157.36720779 54.20437454 -154.875 52.8125 C-151.68176284 50.93446304 -149.33350999 48.98212699 -146.75 46.3125 C-143.52858261 44.03066268 -140.33666148 41.96788222 -136.75 40.3125 C-136.75 39.6525 -136.75 38.9925 -136.75 38.3125 C-135.12750059 37.47430842 -133.50191503 36.6420884 -131.875 35.8125 C-130.97007812 35.3484375 -130.06515625 34.884375 -129.1328125 34.40625 C-126.75 33.3125 -126.75 33.3125 -124.75 33.3125 C-124.75 32.6525 -124.75 31.9925 -124.75 31.3125 C-123.698125 30.879375 -122.64625 30.44625 -121.5625 30 C-118.4494331 28.66850753 -115.63630196 27.08868582 -112.75 25.3125 C-108.1236849 22.83827815 -103.44885899 21.05761206 -98.5 19.375 C-93.64926564 17.70342799 -88.85523869 15.99397754 -84.125 14 C-80.29866123 12.42098006 -76.86952927 11.67071994 -72.75 11.3125 C-72.75 10.6525 -72.75 9.9925 -72.75 9.3125 C-60.49440779 5.76198284 -48.30837469 4.10652982 -35.65136719 2.69311523 C-32.83791349 2.32403291 -30.09519263 1.79717312 -27.3125 1.24609375 C-18.28380154 -0.29425073 -9.13078107 -0.03374962 0 0 Z " fill="#C8DBE9" transform="translate(368.75,489.6875)"/>
<path d="M0 0 C0.64882141 -0.00095673 1.29764282 -0.00191345 1.96612549 -0.00289917 C3.34135027 -0.00358012 4.71657826 -0.00173176 6.09179688 0.00244141 C8.18106472 0.00775638 10.27011417 0.00251161 12.359375 -0.00390625 C13.69791714 -0.00324478 15.03645914 -0.00196219 16.375 0 C17.58768555 0.00112793 18.80037109 0.00225586 20.04980469 0.00341797 C23.27245292 0.12594333 26.28974468 0.52465595 29.453125 1.1328125 C29.453125 1.7928125 29.453125 2.4528125 29.453125 3.1328125 C30.690625 3.2771875 31.928125 3.4215625 33.203125 3.5703125 C36.01816999 3.91969752 38.7232747 4.33660616 41.453125 5.1328125 C41.453125 5.7928125 41.453125 6.4528125 41.453125 7.1328125 C42.38125 7.0090625 43.309375 6.8853125 44.265625 6.7578125 C50.48714844 6.71964364 56.68671303 10.75062441 61.28125 14.70703125 C62.453125 16.1328125 62.453125 16.1328125 62.453125 18.1328125 C64.103125 18.1328125 65.753125 18.1328125 67.453125 18.1328125 C67.453125 18.7928125 67.453125 19.4528125 67.453125 20.1328125 C67.989375 20.4009375 68.525625 20.6690625 69.078125 20.9453125 C69.861875 21.3371875 70.645625 21.7290625 71.453125 22.1328125 C72.443125 22.6071875 73.433125 23.0815625 74.453125 23.5703125 C81.0833771 27.0235688 81.0833771 27.0235688 82.453125 31.1328125 C84.54540689 32.95411441 84.54540689 32.95411441 87.015625 34.6953125 C88.53014643 35.79399029 90.01930413 36.93072025 91.453125 38.1328125 C91.453125 38.7928125 91.453125 39.4528125 91.453125 40.1328125 C92.113125 40.1328125 92.773125 40.1328125 93.453125 40.1328125 C94.82386286 41.76885446 96.15367756 43.43959311 97.453125 45.1328125 C98.030625 45.6896875 98.608125 46.2465625 99.203125 46.8203125 C100.453125 48.1328125 100.453125 48.1328125 100.453125 50.1328125 C101.113125 50.1328125 101.773125 50.1328125 102.453125 50.1328125 C105.30100686 52.38738564 106.20688053 54.7835305 107.453125 58.1328125 C107.989375 59.1846875 108.525625 60.2365625 109.078125 61.3203125 C110.453125 64.1328125 110.453125 64.1328125 110.453125 66.1328125 C111.113125 66.1328125 111.773125 66.1328125 112.453125 66.1328125 C112.95972656 68.01226562 112.95972656 68.01226562 113.4765625 69.9296875 C113.92686298 71.58078928 114.37739601 73.23182765 114.828125 74.8828125 C115.04984375 75.7078125 115.2715625 76.5328125 115.5 77.3828125 C115.82871094 78.58164062 115.82871094 78.58164062 116.1640625 79.8046875 C116.46256104 80.90441895 116.46256104 80.90441895 116.76708984 82.02636719 C117.40327975 84.17418933 117.40327975 84.17418933 118.52587891 86.20019531 C119.81010687 88.87685369 119.58606498 91.20813286 119.453125 94.1328125 C120.113125 94.1328125 120.773125 94.1328125 121.453125 94.1328125 C121.58589844 95.38578125 121.71867188 96.63875 121.85546875 97.9296875 C122.03370791 99.58074496 122.2121014 101.23178577 122.390625 102.8828125 C122.47763672 103.7078125 122.56464844 104.5328125 122.65429688 105.3828125 C122.74130859 106.18203125 122.82832031 106.98125 122.91796875 107.8046875 C122.996521 108.5378418 123.07507324 109.27099609 123.15600586 110.02636719 C123.41419094 112.13809152 123.41419094 112.13809152 123.97827148 114.17944336 C124.75939769 117.39270341 124.59987181 120.65748953 124.578125 123.9453125 C124.57401611 124.69361328 124.56990723 125.44191406 124.56567383 126.21289062 C124.36096398 147.08008855 124.36096398 147.08008855 121.3203125 154.85546875 C120.27809073 157.59247457 119.5464068 160.37275175 118.765625 163.1953125 C116.31090436 171.3199565 112.4065854 178.65770169 108.453125 186.1328125 C107.793125 186.1328125 107.133125 186.1328125 106.453125 186.1328125 C105.19222739 188.5576156 104.11121078 190.97205649 103.078125 193.5078125 C100.77634825 198.64254524 98.38757311 203.17214363 93.453125 206.1328125 C92.793125 206.1328125 92.133125 206.1328125 91.453125 206.1328125 C91.453125 207.4528125 91.453125 208.7728125 91.453125 210.1328125 C90.133125 210.4628125 88.813125 210.7928125 87.453125 211.1328125 C87.453125 211.7928125 87.453125 212.4528125 87.453125 213.1328125 C86.834375 213.1740625 86.215625 213.2153125 85.578125 213.2578125 C84.52625 213.6909375 84.52625 213.6909375 83.453125 214.1328125 C83.123125 215.1228125 82.793125 216.1128125 82.453125 217.1328125 C82.123125 218.1228125 81.793125 219.1128125 81.453125 220.1328125 C79.390625 220.8203125 79.390625 220.8203125 77.453125 221.1328125 C77.123125 222.1228125 76.793125 223.1128125 76.453125 224.1328125 C75.463125 224.1328125 74.473125 224.1328125 73.453125 224.1328125 C73.453125 224.7928125 73.453125 225.4528125 73.453125 226.1328125 C67.93074909 230.71520953 61.79068628 234.1328125 54.453125 234.1328125 C54.453125 234.7928125 54.453125 235.4528125 54.453125 236.1328125 C36.96909743 250.23283473 7.62628683 249.52163747 -13.546875 248.1328125 C-13.876875 247.8028125 -14.206875 247.4728125 -14.546875 247.1328125 C-16.22871448 246.89994242 -17.9181166 246.72017084 -19.609375 246.5703125 C-20.52847656 246.48652344 -21.44757813 246.40273438 -22.39453125 246.31640625 C-23.10480469 246.25582031 -23.81507813 246.19523438 -24.546875 246.1328125 C-24.546875 245.4728125 -24.546875 244.8128125 -24.546875 244.1328125 C-25.475 244.0090625 -26.403125 243.8853125 -27.359375 243.7578125 C-32.44822857 243.03532094 -37.49475854 242.07380345 -42.546875 241.1328125 C-42.546875 240.4728125 -42.546875 239.8128125 -42.546875 239.1328125 C-44.856875 238.8028125 -47.166875 238.4728125 -49.546875 238.1328125 C-49.546875 237.4728125 -49.546875 236.8128125 -49.546875 236.1328125 C-50.49046875 235.92978516 -50.49046875 235.92978516 -51.453125 235.72265625 C-57.56982912 234.18426832 -61.37008421 232.09481425 -65.85546875 227.65625 C-67.57856975 225.90006082 -67.57856975 225.90006082 -70.546875 225.1328125 C-70.546875 224.1428125 -70.546875 223.1528125 -70.546875 222.1328125 C-71.09859375 222.04902344 -71.6503125 221.96523438 -72.21875 221.87890625 C-75.30106354 220.89111785 -77.28588784 219.22539423 -79.796875 217.1953125 C-81.13492188 216.12990234 -81.13492188 216.12990234 -82.5 215.04296875 C-83.17546875 214.41261719 -83.8509375 213.78226563 -84.546875 213.1328125 C-84.546875 212.4728125 -84.546875 211.8128125 -84.546875 211.1328125 C-85.206875 211.1328125 -85.866875 211.1328125 -86.546875 211.1328125 C-88.16796875 209.48828125 -88.16796875 209.48828125 -89.984375 207.3203125 C-92.52026832 204.30817985 -92.52026832 204.30817985 -95.26953125 201.49609375 C-96.546875 200.1328125 -96.546875 200.1328125 -96.546875 198.1328125 C-97.206875 198.1328125 -97.866875 198.1328125 -98.546875 198.1328125 C-98.546875 197.1428125 -98.546875 196.1528125 -98.546875 195.1328125 C-99.866875 194.8028125 -101.186875 194.4728125 -102.546875 194.1328125 C-102.546875 193.4728125 -102.546875 192.8128125 -102.546875 192.1328125 C-103.206875 192.1328125 -103.866875 192.1328125 -104.546875 192.1328125 C-106.60954873 188.19498083 -108.16921965 184.351882 -109.546875 180.1328125 C-110.9237301 176.72060638 -112.27671395 173.56306898 -114.234375 170.4453125 C-115.546875 168.1328125 -115.546875 168.1328125 -115.546875 164.1328125 C-116.206875 164.1328125 -116.866875 164.1328125 -117.546875 164.1328125 C-117.66804688 163.35035156 -117.78921875 162.56789063 -117.9140625 161.76171875 C-118.08164062 160.74980469 -118.24921875 159.73789062 -118.421875 158.6953125 C-118.66550781 157.18130859 -118.66550781 157.18130859 -118.9140625 155.63671875 C-119.12289062 154.81042969 -119.33171875 153.98414063 -119.546875 153.1328125 C-120.206875 152.8028125 -120.866875 152.4728125 -121.546875 152.1328125 C-123.88000564 143.72600412 -123.93292581 134.85623997 -123.921875 126.1953125 C-123.92098877 124.93565674 -123.92010254 123.67600098 -123.91918945 122.37817383 C-123.73997206 108.04351183 -122.04601436 93.13109121 -115.546875 80.1328125 C-114.886875 80.1328125 -114.226875 80.1328125 -113.546875 80.1328125 C-113.44375 79.2046875 -113.340625 78.2765625 -113.234375 77.3203125 C-112.48194516 73.83177414 -111.92270248 73.50863998 -109.546875 71.1328125 C-108.86431511 68.80407875 -108.19636725 66.47098459 -107.546875 64.1328125 C-106.556875 63.6378125 -106.556875 63.6378125 -105.546875 63.1328125 C-104.78204202 61.21847972 -104.78204202 61.21847972 -104.171875 58.9453125 C-102.84351588 54.72423224 -101.30148442 51.59828886 -98.546875 48.1328125 C-97.886875 48.1328125 -97.226875 48.1328125 -96.546875 48.1328125 C-96.216875 47.1428125 -95.886875 46.1528125 -95.546875 45.1328125 C-93.109375 42.4453125 -93.109375 42.4453125 -90.546875 40.1328125 C-89.886875 40.1328125 -89.226875 40.1328125 -88.546875 40.1328125 C-88.546875 39.4728125 -88.546875 38.8128125 -88.546875 38.1328125 C-87.886875 38.1328125 -87.226875 38.1328125 -86.546875 38.1328125 C-86.505625 37.5553125 -86.464375 36.9778125 -86.421875 36.3828125 C-85.11564552 33.02393669 -82.52503468 32.059857 -79.546875 30.1328125 C-78.9075 29.2871875 -78.268125 28.4415625 -77.609375 27.5703125 C-74.96891931 24.44977396 -72.29787054 23.68494859 -68.546875 22.1328125 C-66.88690326 20.93088273 -66.88690326 20.93088273 -65.359375 19.5703125 C-63.02886004 17.55053287 -61.2341998 16.4764749 -58.546875 15.1328125 C-57.886875 14.1428125 -57.226875 13.1528125 -56.546875 12.1328125 C-50.83121169 8.62849462 -45.15059441 7.55209627 -38.546875 7.1328125 C-38.546875 6.4728125 -38.546875 5.8128125 -38.546875 5.1328125 C-29.42160698 3.24850391 -20.56555692 1.78974261 -11.2421875 1.34375 C-7.29334776 1.03471037 -4.15569058 0.00387968 0 0 Z " fill="#C8DBE9" transform="translate(374.546875,207.8671875)"/>
<path d="M0 0 C1.65 0 3.3 0 5 0 C5 47.19 5 94.38 5 143 C4.34 143 3.68 143 3 143 C-1.06488158 137.03092553 -0.40054242 130.74503653 -0.34057617 123.74267578 C-0.33972921 122.39205443 -0.34020639 121.0414317 -0.34190369 119.69081116 C-0.34276238 116.03620238 -0.32515736 112.38189063 -0.30418181 108.72735071 C-0.2853938 104.90368828 -0.2836629 101.08001861 -0.28010559 97.25631714 C-0.27079135 90.02096936 -0.24618603 82.78575801 -0.21605712 75.55047023 C-0.18249373 67.31108754 -0.16602224 59.07169825 -0.15097082 50.83226418 C-0.11963587 33.88809729 -0.06688752 16.94406308 0 0 Z " fill="#DAE8F2" transform="translate(745,1)"/>
<path d="M0 0 C1.98 0 3.96 0 6 0 C6 0.33 6 0.66 6 1 C4.35 1 2.7 1 1 1 C1.33 47.53 1.66 94.06 2 142 C-2.74570254 137.25429746 -2.23814302 130.36119624 -2.27105713 124.06155396 C-2.26498444 122.31574539 -2.26498444 122.31574539 -2.25878906 120.53466797 C-2.2622937 119.29322021 -2.26579834 118.05177246 -2.26940918 116.77270508 C-2.27668089 113.38437564 -2.27500856 109.99629187 -2.26865101 106.60797644 C-2.26356939 103.05490139 -2.26828825 99.50183647 -2.27142334 95.94876099 C-2.27505575 89.98551561 -2.27028196 84.02231987 -2.26074219 78.05908203 C-2.24984902 71.17040756 -2.25339235 64.2818514 -2.264395 57.39317977 C-2.27347665 51.46943236 -2.27474916 45.54572052 -2.26951766 39.62196839 C-2.26640407 36.08788305 -2.265972 32.55385331 -2.27259064 29.01977158 C-2.27945117 25.08198203 -2.26993699 21.14432469 -2.25878906 17.20654297 C-2.26283752 16.03862213 -2.26688599 14.87070129 -2.27105713 13.66738892 C-2.26541748 12.59362 -2.25977783 11.51985107 -2.25396729 10.4135437 C-2.25321323 9.48332838 -2.25245918 8.55311306 -2.25168228 7.5947094 C-1.97619571 4.75459048 -1.17745916 2.58631113 0 0 Z " fill="#9DB5C8" transform="translate(744,0)"/>
<path d="M0 0 C0.33 0 0.66 0 1 0 C1.042721 1.66611905 1.04063832 3.33382885 1 5 C0.67 5.33 0.34 5.66 0 6 C-0.53927517 8.45604671 -1.03623476 10.90464652 -1.5 13.375 C-2.87827511 20.63482533 -2.87827511 20.63482533 -4 24 C-6.18478971 41.71228365 -6.18478971 41.71228365 -4 59 C-3.931009 61.06145107 -3.91532273 63.12501401 -3.9375 65.1875 C-3.94652344 66.27417969 -3.95554688 67.36085938 -3.96484375 68.48046875 C-3.97644531 69.31191406 -3.98804688 70.14335937 -4 71 C-4.99 71.495 -4.99 71.495 -6 72 C-7.72674894 63.31161137 -8.38629422 54.91419794 -8.375 46.0625 C-8.37411377 44.80284424 -8.37322754 43.54318848 -8.37231445 42.24536133 C-8.19309706 27.91069933 -6.49913936 12.99827871 0 0 Z " fill="#A9C7DD" transform="translate(259,288)"/>
<path d="M0 0 C0.33 0 0.66 0 1 0 C1.20449542 4.39665163 0.82158884 8.40736498 0.08984375 12.75 C-1.14267182 20.57505343 -1.89386449 28.42378458 -2.5625 36.3125 C-2.62692291 37.05714508 -2.69134583 37.80179016 -2.75772095 38.56900024 C-4.13798334 54.69662617 -4.69983937 70.8195176 -5 87 C-5.33 87 -5.66 87 -6 87 C-6.0231666 79.75032602 -6.04093714 72.50066003 -6.05181217 65.25095654 C-6.05703154 61.8846576 -6.06411203 58.51838398 -6.07543945 55.15209961 C-6.08753899 51.28238245 -6.09323604 47.41270134 -6.09765625 43.54296875 C-6.10281754 42.33352097 -6.10797882 41.12407318 -6.11329651 39.87797546 C-6.11337204 38.75703995 -6.11344757 37.63610443 -6.11352539 36.48120117 C-6.115746 35.49302902 -6.11796661 34.50485687 -6.12025452 33.48674011 C-6 31 -6 31 -5 28 C-4.68406507 25.52134688 -4.39572738 23.0460034 -4.125 20.5625 C-3.31323691 13.53682655 -1.93526275 6.8121249 0 0 Z " fill="#AFCCE1" transform="translate(137,664)"/>
<path d="M0 0 C0.66 0.33 1.32 0.66 2 1 C4.74844213 9.31844614 4.30835103 18.52354625 4.26074219 27.17919922 C4.25001836 29.49603439 4.2606943 31.81209446 4.2734375 34.12890625 C4.29329059 53.65598376 4.29329059 53.65598376 0 62 C-0.36277195 63.80311093 -0.67244512 65.61745648 -0.9375 67.4375 C-1.64239784 71.61693366 -2.52811113 74.49815743 -5 78 C-5.69822617 79.65369357 -6.37498605 81.31727014 -7 83 C-7.66 83 -8.32 83 -9 83 C-6.69742544 74.67530735 -3.88019128 66.57353705 -0.8671875 58.48046875 C4.41798522 43.3629702 2.89207513 23.78570011 0.4375 8.171875 C0.05387406 5.39058692 -0.08423124 2.8006886 0 0 Z " fill="#AAC8DD" transform="translate(496,304)"/>
<path d="M0 0 C3.47176473 1.01612626 6.52572188 2.22167606 9.625 4.0625 C12.26426698 5.57763475 14.05818943 6.52931031 17 7 C17 7.99 17 8.98 17 10 C18.0828125 9.938125 18.0828125 9.938125 19.1875 9.875 C22 10 22 10 24.22265625 10.91015625 C27.52370955 12.20550628 30.77426924 12.86808099 34.25 13.5625 C40.8923476 14.8923476 40.8923476 14.8923476 42 16 C44.52596259 16.23653523 47.03107207 16.42173692 49.5625 16.5625 C50.62887695 16.62727539 50.62887695 16.62727539 51.71679688 16.69335938 C53.47761912 16.79971777 55.2387832 16.90038846 57 17 C57 17.66 57 18.32 57 19 C63.27 19 69.54 19 76 19 C76 19.33 76 19.66 76 20 C71.68751391 20.02886537 67.37505238 20.04675255 63.0625 20.0625 C61.83080078 20.07087891 60.59910156 20.07925781 59.33007812 20.08789062 C57.5753418 20.09272461 57.5753418 20.09272461 55.78515625 20.09765625 C54.15912476 20.10551147 54.15912476 20.10551147 52.50024414 20.11352539 C50 20 50 20 49 19 C47.31816052 18.76712992 45.6287584 18.58735834 43.9375 18.4375 C43.01839844 18.35371094 42.09929687 18.26992188 41.15234375 18.18359375 C40.08693359 18.09271484 40.08693359 18.09271484 39 18 C39 17.34 39 16.68 39 16 C38.071875 15.87625 37.14375 15.7525 36.1875 15.625 C31.09864643 14.90250844 26.05211646 13.94099095 21 13 C21 12.34 21 11.68 21 11 C18.69 10.67 16.38 10.34 14 10 C14 9.34 14 8.68 14 8 C13.32453125 7.82984375 12.6490625 7.6596875 11.953125 7.484375 C2.96438884 5.04234841 2.96438884 5.04234841 0 1 C0 0.67 0 0.34 0 0 Z " fill="#AFCDE1" transform="translate(311,436)"/>
<path d="M0 0 C13.55855856 0.77477477 13.55855856 0.77477477 20 3 C21.95818471 3.64628381 23.91653419 4.2920685 25.875 4.9375 C26.91269531 5.288125 27.95039063 5.63875 29.01953125 6 C30.80355343 6.59857101 32.59150709 7.18587457 34.38671875 7.75 C40.48917801 9.67824566 46.21853519 12.2659615 52 15 C52 15.66 52 16.32 52 17 C53.175625 17.0928125 53.175625 17.0928125 54.375 17.1875 C59.35288793 18.3032335 63.52453694 20.60306227 68 23 C68 23.66 68 24.32 68 25 C67.34 25 66.68 25 66 25 C66 24.34 66 23.68 66 23 C65.21625 22.938125 64.4325 22.87625 63.625 22.8125 C58.64711207 21.6967665 54.47546306 19.39693773 50 17 C50 16.34 50 15.68 50 15 C48.7934375 14.8453125 48.7934375 14.8453125 47.5625 14.6875 C42.52828015 13.71598389 37.52826601 12.31256722 32.9609375 9.94140625 C30.07974804 8.55820573 27.15030982 8.36349729 24 8 C24 7.34 24 6.68 24 6 C19.68803391 5.05675742 15.37934119 4.51958285 11 4 C11 3.34 11 2.68 11 2 C8.02148438 2.09765625 8.02148438 2.09765625 5.04296875 2.1953125 C3 2 3 2 0 0 Z " fill="#A9C7DD" transform="translate(432,495)"/>
<path d="M0 0 C0.66 0.33 1.32 0.66 2 1 C0.38405168 3.04119788 -1.2856382 5.04072937 -3 7 C-3.66 7 -4.32 7 -5 7 C-5.22816406 7.55558594 -5.45632812 8.11117187 -5.69140625 8.68359375 C-7.36858311 11.65244712 -9.49663904 13.68615519 -11.9375 16.0625 C-13.25041016 17.34833984 -13.25041016 17.34833984 -14.58984375 18.66015625 C-15.38519531 19.43230469 -16.18054688 20.20445312 -17 21 C-19.74036203 23.66790053 -22.15814208 26.5342477 -24.59765625 29.4765625 C-26 31 -26 31 -28 32 C-26.37940026 28.45493808 -24.27370948 25.40978743 -22 22.25 C-21.29875 21.26515625 -20.5975 20.2803125 -19.875 19.265625 C-19.25625 18.51796875 -18.6375 17.7703125 -18 17 C-17.34 17 -16.68 17 -16 17 C-15.73574219 16.42121094 -15.47148437 15.84242188 -15.19921875 15.24609375 C-11.69353226 8.68006856 -6.13723532 4.00799041 0 0 Z " fill="#B2CFE3" transform="translate(206,549)"/>
<path d="M0 0 C0.33 0.66 0.66 1.32 1 2 C0.34386719 2.65355469 -0.31226563 3.30710938 -0.98828125 3.98046875 C-3.31222118 6.30277038 -5.6164625 8.6437562 -7.91796875 10.98828125 C-9.34104467 12.42978738 -10.76422394 13.87119148 -12.1875 15.3125 C-13.27321289 16.42334961 -13.27321289 16.42334961 -14.38085938 17.55664062 C-15.07373047 18.25595703 -15.76660156 18.95527344 -16.48046875 19.67578125 C-17.10848389 20.31427002 -17.73649902 20.95275879 -18.38354492 21.6105957 C-20 23 -20 23 -22 23 C-22.11472656 23.58265625 -22.22945313 24.1653125 -22.34765625 24.765625 C-23.04824062 27.16523135 -23.98192595 28.72860933 -25.4375 30.75 C-25.86933594 31.36359375 -26.30117188 31.9771875 -26.74609375 32.609375 C-27.36677734 33.29773438 -27.36677734 33.29773438 -28 34 C-28.66 34 -29.32 34 -30 34 C-28.66749209 30.4124787 -27.169283 27.1635377 -25 24 C-24.34 24 -23.68 24 -23 24 C-22.67 23.01 -22.34 22.02 -22 21 C-19.5625 18.3125 -19.5625 18.3125 -17 16 C-16.34 16 -15.68 16 -15 16 C-15 15.34 -15 14.68 -15 14 C-14.34 14 -13.68 14 -13 14 C-12.95875 13.4225 -12.9175 12.845 -12.875 12.25 C-11.56877052 8.89112419 -8.97815968 7.9270445 -6 6 C-4.62986661 4.36345179 -3.2879728 2.70196405 -2 1 C-1.34 0.67 -0.68 0.34 0 0 Z " fill="#B7D3E6" transform="translate(301,232)"/>
<path d="M0 0 C0 0.33 0 0.66 0 1 C-0.85549438 1.12846313 -0.85549438 1.12846313 -1.72827148 1.25952148 C-4.29867816 1.647928 -6.86807894 2.04262829 -9.4375 2.4375 C-10.33533203 2.57220703 -11.23316406 2.70691406 -12.15820312 2.84570312 C-13.01220703 2.97783203 -13.86621094 3.10996094 -14.74609375 3.24609375 C-15.93223267 3.42676392 -15.93223267 3.42676392 -17.14233398 3.61108398 C-19.00702617 3.82462442 -19.00702617 3.82462442 -20 5 C-23.11786005 5.44755772 -26.23452977 5.81954893 -29.36523438 6.16210938 C-32.9975547 6.59883997 -35.80005331 7.24567629 -39 9 C-41.25 8.625 -41.25 8.625 -43 8 C-42.01 8 -41.02 8 -40 8 C-40 7.34 -40 6.68 -40 6 C-26.70868376 2.48522318 -13.85652936 -0.49983473 0 0 Z " fill="#B6D2E5" transform="translate(336,493)"/>
<path d="M0 0 C0.33 0 0.66 0 1 0 C0.99476318 0.86278564 0.98952637 1.72557129 0.98413086 2.61450195 C0.96708004 5.81811273 0.95454547 9.02170036 0.94506836 12.2253418 C0.94004223 13.61141725 0.93322034 14.99748741 0.92456055 16.38354492 C0.91241982 18.37676715 0.90728979 20.37002819 0.90234375 22.36328125 C0.89710693 23.56251221 0.89187012 24.76174316 0.88647461 25.99731445 C0.86154382 29.05156451 0.86154382 29.05156451 2 32 C2.068991 34.06145107 2.08467727 36.12501401 2.0625 38.1875 C2.05347656 39.27417969 2.04445312 40.36085938 2.03515625 41.48046875 C2.02355469 42.31191406 2.01195312 43.14335937 2 44 C1.01 44.495 1.01 44.495 0 45 C-0.73203267 39.7525543 -1.12808528 34.70420756 -1.1328125 29.39453125 C-1.13376923 28.70743576 -1.13472595 28.02034027 -1.13571167 27.31242371 C-1.13638624 25.87470405 -1.13458299 24.43698122 -1.13037109 22.99926758 C-1.12498744 20.8073849 -1.13035342 18.61570477 -1.13671875 16.42382812 C-1.13605832 15.01822872 -1.13477789 13.61262944 -1.1328125 12.20703125 C-1.13168457 10.9435083 -1.13055664 9.67998535 -1.12939453 8.37817383 C-1.01716083 5.44802717 -0.68209629 2.84319679 0 0 Z " fill="#B4D0E4" transform="translate(253,315)"/>
<path d="M0 0 C0.99 0.495 0.99 0.495 2 1 C2.74609375 3.2578125 2.74609375 3.2578125 3.4375 6.125 C4.30329067 9.55282428 5.18634553 12.4002978 6.6875 15.625 C8.34313269 19.88234119 8.27590385 23.49357044 8 28 C8.66 28 9.32 28 10 28 C11.03026944 34.69675136 11.10152799 41.2314676 11 48 C10.67 48 10.34 48 10 48 C9.86722656 46.94039062 9.73445312 45.88078125 9.59765625 44.7890625 C9.41946125 43.40101721 9.2410654 42.01299769 9.0625 40.625 C8.93198242 39.57699219 8.93198242 39.57699219 8.79882812 38.5078125 C8.33681872 34.63216425 8.33681872 34.63216425 7 31 C6.92966231 29.12620395 6.9156978 27.24998898 6.9375 25.375 C6.94652344 24.37210938 6.95554687 23.36921875 6.96484375 22.3359375 C6.98224609 21.17964844 6.98224609 21.17964844 7 20 C6.34 20 5.68 20 5 20 C3.33333333 13.33333333 1.66666667 6.66666667 0 0 Z " fill="#ACCADF" transform="translate(607,644)"/>
<path d="M0 0 C-8.24594658 7.32289286 -18.97176294 8.49736353 -29.6484375 8.140625 C-30.81246094 8.07101562 -30.81246094 8.07101562 -32 8 C-32 7.67 -32 7.34 -32 7 C-29.36 7 -26.72 7 -24 7 C-24 6.34 -24 5.68 -24 5 C-22.87980469 4.80664062 -21.75960938 4.61328125 -20.60546875 4.4140625 C-19.13274651 4.1514114 -17.66009381 3.88837017 -16.1875 3.625 C-15.44951172 3.49867188 -14.71152344 3.37234375 -13.95117188 3.2421875 C-8.78290433 2.30675446 -5.23991352 -0.28323857 0 0 Z " fill="#AECCDF" transform="translate(424,446)"/>
<path d="M0 0 C10.56 0 21.12 0 32 0 C32 0.33 32 0.66 32 1 C31.28344238 1.02505615 30.56688477 1.0501123 29.82861328 1.07592773 C26.59388486 1.19169751 23.35946159 1.31450969 20.125 1.4375 C18.99707031 1.47681641 17.86914062 1.51613281 16.70703125 1.55664062 C15.63066406 1.59853516 14.55429687 1.64042969 13.4453125 1.68359375 C11.95281982 1.73858032 11.95281982 1.73858032 10.43017578 1.79467773 C7.99220499 1.84959532 7.99220499 1.84959532 6 3 C3.62597499 3.07116382 1.24999323 3.08409085 -1.125 3.0625 C-2.40632813 3.05347656 -3.68765625 3.04445312 -5.0078125 3.03515625 C-6.48894531 3.01775391 -6.48894531 3.01775391 -8 3 C-8 2.67 -8 2.34 -8 2 C-5.36 2 -2.72 2 0 2 C0 1.34 0 0.68 0 0 Z " fill="#ABCAE0" transform="translate(360,207)"/>
<path d="M0 0 C2.64 0 5.28 0 8 0 C2.70848182 2.84927902 -1.95448991 4.28788143 -8 4 C-8 4.66 -8 5.32 -8 6 C-9.26607607 6.53229326 -10.53810412 7.05044544 -11.8125 7.5625 C-12.52019531 7.85253906 -13.22789062 8.14257812 -13.95703125 8.44140625 C-16 9 -16 9 -19 8 C-12.56479472 4.35920537 -7.41216681 2.35865323 0 2 C0 1.34 0 0.68 0 0 Z " fill="#A7C7DE" transform="translate(336,213)"/>
<path d="M0 0 C1 3 1 3 0.3125 5.5 C-1.14103578 8.26863957 -2.53991869 9.15493902 -5 11 C-5.70710678 12.64991582 -6.37943989 14.31562256 -7 16 C-7.66 16.33 -8.32 16.66 -9 17 C-7.99806563 13.20696275 -7.18975773 10.28463659 -5 7 C-4.34 7 -3.68 7 -3 7 C-2.690625 6.030625 -2.38125 5.06125 -2.0625 4.0625 C-1 1 -1 1 0 0 Z " fill="#B2CEE0" transform="translate(486,387)"/>
<path d="M0 0 C-3.45770759 3.18109098 -6.42954774 3.42869347 -11 4 C-11.721875 4.37125 -12.44375 4.7425 -13.1875 5.125 C-15 6 -15 6 -17.25 5.625 C-17.8275 5.41875 -18.405 5.2125 -19 5 C-18.01 5 -17.02 5 -16 5 C-16 4.34 -16 3.68 -16 3 C-14.27318563 2.49193553 -12.54342021 1.99389533 -10.8125 1.5 C-9.84957031 1.2215625 -8.88664062 0.943125 -7.89453125 0.65625 C-5.14654124 0.03322392 -2.80401584 -0.12302812 0 0 Z " fill="#ACCADE" transform="translate(312,496)"/>
<path d="M0 0 C0.33 0.66 0.66 1.32 1 2 C-0.1875 4.25 -0.1875 4.25 -2 7 C-2.680625 8.093125 -3.36125 9.18625 -4.0625 10.3125 C-4.701875 11.199375 -5.34125 12.08625 -6 13 C-6.66 13 -7.32 13 -8 13 C-6.66749209 9.4124787 -5.169283 6.1635377 -3 3 C-2.34 3 -1.68 3 -1 3 C-0.67 2.01 -0.34 1.02 0 0 Z " fill="#B0CDE2" transform="translate(279,253)"/>
<path d="M0 0 C2 0 2 0 3.5 1.1875 C5.27205935 3.32873839 6.02787681 5.40767148 7 8 C7.99 9.485 7.99 9.485 9 11 C8.67 11.99 8.34 12.98 8 14 C7.34 13.34 6.68 12.68 6 12 C6 11.01 6 10.02 6 9 C5.34 9 4.68 9 4 9 C3.67 7.35 3.34 5.7 3 4 C2.34 4 1.68 4 1 4 C0.67 2.68 0.34 1.36 0 0 Z " fill="#AECBDE" transform="translate(475,258)"/>
<path d="M0 0 C3.96 0.33 7.92 0.66 12 1 C12 1.66 12 2.32 12 3 C13.32 3.33 14.64 3.66 16 4 C13.69 4.33 11.38 4.66 9 5 C8.67 4.01 8.34 3.02 8 2 C5.36 1.67 2.72 1.34 0 1 C0 0.67 0 0.34 0 0 Z " fill="#B0CEE1" transform="translate(392,208)"/>
<path d="M0 0 C3.79979982 3.25697128 6.48005185 7.22568435 8 12 C7.60546875 14.25 7.60546875 14.25 7 16 C5.82845707 13.71070947 4.66261926 11.41881638 3.5 9.125 C3.16613281 8.47402344 2.83226562 7.82304688 2.48828125 7.15234375 C0 2.2265625 0 2.2265625 0 0 Z " fill="#ACCAE0" transform="translate(592,610)"/>
<path d="M0 0 C0.66 0.33 1.32 0.66 2 1 C-5.42857143 12.71428571 -5.42857143 12.71428571 -10 15 C-8.37815499 11.41486894 -6.20743761 8.41007677 -3.875 5.25 C-3.15054688 4.26515625 -2.42609375 3.2803125 -1.6796875 2.265625 C-1.12539062 1.51796875 -0.57109375 0.7703125 0 0 Z " fill="#B2CFE3" transform="translate(188,566)"/>
<path d="M0 0 C0 0.66 0 1.32 0 2 C-7.28571429 6.42857143 -7.28571429 6.42857143 -12 7 C-12 6.34 -12 5.68 -12 5 C-10.37750059 4.16180842 -8.75191503 3.3295884 -7.125 2.5 C-6.22007812 2.0359375 -5.31515625 1.571875 -4.3828125 1.09375 C-2 0 -2 0 0 0 Z " fill="#B1CEE2" transform="translate(244,523)"/>
<path d="M0 0 C0.33 0.66 0.66 1.32 1 2 C0.0625 4.125 0.0625 4.125 -1 6 C-1.66 6 -2.32 6 -3 6 C-3.12375 7.134375 -3.2475 8.26875 -3.375 9.4375 C-3.58125 10.613125 -3.7875 11.78875 -4 13 C-4.99 13.495 -4.99 13.495 -6 14 C-5.57533503 12.22604492 -5.1347591 10.45589369 -4.6875 8.6875 C-4.44386719 7.70136719 -4.20023437 6.71523438 -3.94921875 5.69921875 C-2.99950411 2.99858988 -2.18152323 1.79043784 0 0 Z " fill="#ADCADF" transform="translate(270,266)"/>
<path d="M0 0 C3.18703359 1.5935168 3.89022912 4.7881925 5 8 C5.39764263 9.98821313 5.75455166 11.98732362 6 14 C1.86217076 9.72424312 0.94055703 5.68046944 0 0 Z " fill="#AECCE0" transform="translate(600,626)"/>
<path d="M0 0 C0.75 1.5625 0.75 1.5625 1 4 C-0.13084437 6.50286409 -1.52139516 8.67007722 -3 11 C-3.66 11 -4.32 11 -5 11 C-3.77472971 6.94718288 -2.30119506 3.55639236 0 0 Z " fill="#AECBE0" transform="translate(157,611)"/>
<path d="M0 0 C-3.83325617 2.70582788 -6.32538149 3.32613618 -11 3 C-10 1 -10 1 -7.1875 -0.1875 C-4.14038924 -0.96421451 -2.86250637 -1.10096399 0 0 Z " fill="#B8D3E5" transform="translate(293,503)"/>
<path d="M0 0 C0.33 0.66 0.66 1.32 1 2 C1.66 2.2475 2.32 2.495 3 2.75 C5 4 5 4 5.75 7.125 C5.8325 8.07375 5.915 9.0225 6 10 C5.34 10 4.68 10 4 10 C2.27735506 6.70450534 0.70554068 3.66881155 0 0 Z " fill="#ADCBE0" transform="translate(266,390)"/>
<path d="M0 0 C3.95677402 1.67401978 6.84464213 4.13149285 10 7 C10 7.66 10 8.32 10 9 C6.04322598 7.32598022 3.15535787 4.86850715 0 2 C0 1.34 0 0.68 0 0 Z " fill="#ACCADF" transform="translate(456,237)"/>
<path d="M0 0 C2.64 0 5.28 0 8 0 C4.20458337 2.21399303 0.24370579 3.00980198 -4 4 C-4 3.34 -4 2.68 -4 2 C-2.68 2 -1.36 2 0 2 C0 1.34 0 0.68 0 0 Z " fill="#B4D1E4" transform="translate(336,213)"/>
<path d="M0 0 C0.66 0 1.32 0 2 0 C3.32 2.64 4.64 5.28 6 8 C2 6 2 6 0.75 2.875 C0.5025 1.92625 0.255 0.9775 0 0 Z " fill="#ADCADF" transform="translate(586,600)"/>
<path d="M0 0 C1 3 1 3 0.1875 5.625 C-1 8 -1 8 -3 9 C-2.5020163 5.26512223 -2.12508244 3.18762365 0 0 Z " fill="#A7C6DD" transform="translate(486,387)"/>
<path d="M0 0 C0 0.66 0 1.32 0 2 C-0.639375 2.103125 -1.27875 2.20625 -1.9375 2.3125 C-2.618125 2.539375 -3.29875 2.76625 -4 3 C-4.33 3.99 -4.66 4.98 -5 6 C-5.99 6 -6.98 6 -8 6 C-8 5.34 -8 4.68 -8 4 C-2.58823529 0 -2.58823529 0 0 0 Z " fill="#B3CEE1" transform="translate(456,426)"/>
<path d="M0 0 C1.1725131 0.95117134 2.33787015 1.91117009 3.5 2.875 C4.47453125 3.67550781 4.47453125 3.67550781 5.46875 4.4921875 C5.9740625 4.98976563 6.479375 5.48734375 7 6 C7 6.66 7 7.32 7 8 C3.64379729 6.61122646 1.92701272 5.08322035 0 2 C0 1.34 0 0.68 0 0 Z " fill="#AAC8DF" transform="translate(278,408)"/>
</svg>
