<svg width="26" height="26" viewBox="0 0 26 26" fill="none" xmlns="http://www.w3.org/2000/svg">
<path d="M3.24691 25.0422C2.54266 25.0422 1.93978 24.7914 1.43828 24.2899C0.936785 23.7884 0.686035 23.1855 0.686035 22.4813V3.51986C0.686035 2.81561 0.936785 2.21273 1.43828 1.71123C1.93978 1.20971 2.54266 0.958946 3.24691 0.958946H14.4985C14.7995 0.958946 15.0519 1.06082 15.2555 1.26456C15.4591 1.4683 15.561 1.72075 15.561 2.02191C15.561 2.32309 15.4591 2.57539 15.2555 2.7788C15.0519 2.98221 14.7995 3.08391 14.4985 3.08391H3.24691C3.11976 3.08391 3.01532 3.12478 2.93358 3.20652C2.85184 3.28826 2.81096 3.39271 2.81096 3.51986V22.4813C2.81096 22.6084 2.85184 22.7129 2.93358 22.7946C3.01532 22.8764 3.11976 22.9172 3.24691 22.9172H22.2084C22.3355 22.9172 22.44 22.8764 22.5217 22.7946C22.6034 22.7129 22.6443 22.6084 22.6443 22.4813V11.2297C22.6443 10.9287 22.7462 10.6764 22.9499 10.4727C23.1536 10.2691 23.4061 10.1672 23.7073 10.1672C24.0084 10.1672 24.2607 10.2691 24.4641 10.4727C24.6675 10.6764 24.7693 10.9287 24.7693 11.2297V22.4813C24.7693 23.1855 24.5185 23.7884 24.017 24.2899C23.5155 24.7914 22.9126 25.0422 22.2084 25.0422H3.24691ZM20.3559 5.37232H18.585C18.284 5.37232 18.0316 5.27047 17.828 5.06675C17.6244 4.86301 17.5226 4.61056 17.5226 4.3094C17.5226 4.00822 17.6244 3.75592 17.828 3.55251C18.0316 3.3491 18.284 3.2474 18.585 3.2474H20.3559V1.47653C20.3559 1.17548 20.4578 0.92314 20.6615 0.719494C20.8652 0.515872 21.1177 0.414062 21.4188 0.414062C21.72 0.414062 21.9723 0.515872 22.1757 0.719494C22.3791 0.92314 22.4808 1.17548 22.4808 1.47653V3.2474H24.2517C24.5527 3.2474 24.8051 3.34925 25.0087 3.55297C25.2123 3.75671 25.3141 4.00916 25.3141 4.31032C25.3141 4.6115 25.2123 4.8638 25.0087 5.06721C24.8051 5.27062 24.5527 5.37232 24.2517 5.37232H22.4808V7.14319C22.4808 7.44423 22.379 7.69658 22.1752 7.90022C21.9715 8.10385 21.7191 8.20566 21.4179 8.20566C21.1167 8.20566 20.8644 8.10385 20.661 7.90022C20.4576 7.69658 20.3559 7.44423 20.3559 7.14319V5.37232ZM11.6379 18.6945L9.31676 15.7195C9.18418 15.5579 9.01573 15.4771 8.8114 15.4771C8.60707 15.4771 8.43861 15.5624 8.30604 15.7332L6.0721 18.7054C5.90136 18.9233 5.87889 19.1485 6.00466 19.381C6.13044 19.6135 6.3191 19.7297 6.57066 19.7297H18.9936C19.2451 19.7297 19.4338 19.6135 19.5596 19.381C19.6854 19.1485 19.6674 18.9233 19.5058 18.7054L16.1276 14.1803C15.995 14.0095 15.8243 13.9242 15.6154 13.9242C15.4066 13.9242 15.2355 14.0107 15.1023 14.1838L11.6379 18.6945Z" fill="#6E6E82"/>
</svg>
