<svg width="79" height="73" viewBox="0 0 79 73" fill="none" xmlns="http://www.w3.org/2000/svg">
<path fill-rule="evenodd" clip-rule="evenodd" d="M21.9004 0C20.7958 0 19.9004 0.895432 19.9004 2V24.3969C19.9004 25.5015 20.7958 26.3969 21.9004 26.3969H50.7001L57.4658 31.9435C58.1185 32.4787 59.0997 32.0143 59.0998 31.1702L59.1001 24.4331C59.1003 24.4211 59.1004 24.409 59.1004 24.3969V2C59.1004 0.895431 58.205 0 57.1004 0H21.9004Z" fill="#6E6E82"/>
<path fill-rule="evenodd" clip-rule="evenodd" d="M27.7386 11.4766C28.2909 11.4766 28.7386 11.9243 28.7386 12.4766V13.0259C28.7386 14.2427 29.5887 15.6308 31.5779 16.8003C33.5294 17.9477 36.3266 18.707 39.4994 18.707C42.6721 18.707 45.4693 17.9477 47.4208 16.8003C49.41 15.6308 50.2601 14.2427 50.2601 13.0259V12.4766C50.2601 11.9243 50.7079 11.4766 51.2601 11.4766H52.3346C52.8869 11.4766 53.3346 11.9243 53.3346 12.4766V13.0259C53.3346 15.8024 51.4318 18.0296 48.97 19.477C46.4704 20.9466 43.1186 21.8058 39.4994 21.8058C35.8801 21.8058 32.5283 20.9466 30.0288 19.477C27.5669 18.0296 25.6641 15.8024 25.6641 13.0259V12.4766C25.6641 11.9243 26.1118 11.4766 26.6641 11.4766H27.7386Z" fill="#1C1C22"/>
<path d="M1.83008 69V56.2734H3.41211V67.5938H9.31836V69H1.83008ZM15.1367 69.1934C12.5352 69.2021 10.7773 67.2334 10.7773 64.2715C10.7773 61.292 12.5352 59.332 15.1367 59.332C17.7295 59.332 19.4697 61.292 19.4609 64.2715C19.4697 67.2334 17.7295 69.2021 15.1367 69.1934ZM12.2891 64.2715C12.2979 66.1787 13.1943 67.8574 15.1367 67.8574C17.0615 67.8574 17.9492 66.1787 17.9492 64.2715C17.9492 62.373 17.0615 60.668 15.1367 60.668C13.1943 60.668 12.2979 62.373 12.2891 64.2715ZM20.9902 66.293C20.9902 64.1045 22.9238 63.6035 24.5762 63.4805C25.1914 63.4365 26.7295 63.3486 27.1602 63.3398V62.5664C27.1602 61.3535 26.4395 60.6504 24.998 60.6504C23.7939 60.6504 23.0645 61.2041 22.8535 61.9336H21.2715C21.4648 60.3955 22.959 59.332 25.0684 59.332C26.3164 59.332 28.6631 59.7012 28.6543 62.707V69H27.1602V67.6992H27.0898C26.7734 68.3408 25.9033 69.2197 24.2422 69.2285C22.4316 69.2197 20.9902 68.1562 20.9902 66.293ZM22.502 66.3633C22.5107 67.374 23.3457 67.8838 24.5059 67.875C26.2109 67.8838 27.1602 66.7412 27.1602 65.5371V64.5791C26.7119 64.6055 25.209 64.7197 24.752 64.7461C23.3809 64.834 22.5107 65.3174 22.502 66.3633ZM34.6836 69.1934C32.3018 69.2021 30.623 67.2861 30.623 64.2539C30.623 61.2305 32.3018 59.332 34.7012 59.332C36.5557 59.332 37.1357 60.457 37.4609 60.9668H37.5664V56.2734H39.0957V69H37.6191V67.541H37.4609C37.127 68.0684 36.5029 69.2021 34.6836 69.1934ZM32.1523 64.2188C32.1523 66.249 33.084 67.8398 34.8945 67.8398C36.6436 67.8398 37.6104 66.3633 37.6191 64.2188C37.6104 62.1006 36.6699 60.6855 34.8945 60.6855C33.0576 60.6855 32.1523 62.2236 32.1523 64.2188ZM41.7148 69V59.4551H43.2266V69H41.7148ZM41.416 56.8711C41.4072 56.3086 41.8906 55.8604 42.4707 55.8691C43.0508 55.8604 43.5342 56.3086 43.543 56.8711C43.5342 57.4248 43.0508 57.873 42.4707 57.873C41.8906 57.873 41.4072 57.4248 41.416 56.8711ZM47.1465 63.2695V69H45.6348V59.4551H47.0938V60.9492H47.2168C47.665 59.9736 48.5615 59.332 50.0117 59.332C51.9453 59.332 53.2373 60.5098 53.2285 62.9355V69H51.7168V63.041C51.7168 61.5645 50.9082 60.6855 49.5547 60.6855C48.166 60.6855 47.1465 61.6172 47.1465 63.2695ZM59.5215 72.7793C57.21 72.7793 55.6455 71.7686 55.4785 70.002H57.0605C57.2627 70.9775 58.168 71.4609 59.5215 71.4609C61.1562 71.4609 62.1582 70.749 62.1582 69.1758V67.2422H62.0352C61.71 67.7695 61.1035 68.8506 59.2578 68.8594C56.9375 68.8506 55.1973 67.1016 55.1973 64.0957C55.1973 61.1602 56.876 59.332 59.2754 59.332C61.1299 59.332 61.7275 60.457 62.0703 60.9668H62.1934V59.4551H63.6699V69.2637C63.6611 71.7246 61.8506 72.7793 59.5215 72.7793ZM56.7266 64.1484C56.7266 66.126 57.6582 67.5059 59.4688 67.5059C61.2178 67.5059 62.1846 66.249 62.1934 64.1484C62.1846 62.1006 61.2441 60.6855 59.4688 60.6855C57.6318 60.6855 56.7266 62.2236 56.7266 64.1484ZM67.1504 69.1055C66.5352 69.0967 66.0078 68.5869 66.0254 67.9629C66.0078 67.3477 66.5352 66.8379 67.1504 66.8379C67.7744 66.8379 68.2842 67.3477 68.2754 67.9629C68.2842 68.5869 67.7744 69.0967 67.1504 69.1055ZM71.7207 69.1055C71.1055 69.0967 70.5781 68.5869 70.5957 67.9629C70.5781 67.3477 71.1055 66.8379 71.7207 66.8379C72.3447 66.8379 72.8545 67.3477 72.8457 67.9629C72.8545 68.5869 72.3447 69.0967 71.7207 69.1055ZM76.291 69.1055C75.6758 69.0967 75.1484 68.5869 75.166 67.9629C75.1484 67.3477 75.6758 66.8379 76.291 66.8379C76.915 66.8379 77.4248 67.3477 77.416 67.9629C77.4248 68.5869 76.915 69.0967 76.291 69.1055Z" fill="#6E6E82"/>
</svg>
