<svg width="112" height="18" viewBox="0 0 112 18" fill="none" xmlns="http://www.w3.org/2000/svg">
<path d="M30.8309 12.9117C30.7204 12.9117 30.6309 12.8222 30.6309 12.7117V3.17015C30.6309 3.05969 30.7204 2.97015 30.8309 2.97015H32.1084C32.1774 2.97015 32.2414 3.00562 32.278 3.06404L36.57 9.92139C36.6534 10.0546 36.5576 10.2275 36.4005 10.2275H36.2883C36.1318 10.2275 36.036 10.0559 36.118 9.92264L40.3399 3.06529C40.3763 3.00616 40.4408 2.97015 40.5102 2.97015H41.7871C41.8975 2.97015 41.987 3.05951 41.9871 3.16985L42.0014 12.7114C42.0016 12.822 41.912 12.9117 41.8014 12.9117H40.3754C40.2651 12.9117 40.1756 12.8224 40.1754 12.7121L40.1613 5.84887C40.1611 5.77288 40.2227 5.71118 40.2987 5.71118C40.4067 5.71118 40.4725 5.83004 40.4151 5.92155L36.8055 11.6817C36.769 11.7401 36.7049 11.7755 36.6361 11.7755H35.9956C35.9272 11.7755 35.8636 11.7406 35.8268 11.6829L32.1806 5.95374C32.1137 5.84867 32.1892 5.71118 32.3137 5.71118C32.4009 5.71118 32.4716 5.78184 32.4716 5.869V12.7117C32.4716 12.8222 32.382 12.9117 32.2716 12.9117H30.8309Z" fill="#F1F1F5"/>
<path d="M49.529 13.0537C48.7175 13.0537 47.9703 12.9259 47.2875 12.6703C46.6046 12.4146 46.0108 12.0596 45.5061 11.6051C45.0014 11.1412 44.6105 10.6015 44.3334 9.98606C44.0563 9.36116 43.9178 8.67945 43.9178 7.94094C43.9178 7.20242 44.0563 6.52545 44.3334 5.91001C44.6105 5.28512 45.0014 4.74543 45.5061 4.29096C46.0108 3.82702 46.6046 3.46723 47.2875 3.21159C47.9703 2.95595 48.7125 2.82812 49.5141 2.82812C50.3256 2.82812 51.0679 2.95595 51.7408 3.21159C52.4236 3.46723 53.0174 3.82702 53.5221 4.29096C54.0268 4.74543 54.4177 5.28512 54.6948 5.91001C54.9719 6.52545 55.1105 7.20242 55.1105 7.94094C55.1105 8.67945 54.9719 9.36116 54.6948 9.98606C54.4177 10.611 54.0268 11.1506 53.5221 11.6051C53.0174 12.0596 52.4236 12.4146 51.7408 12.6703C51.0679 12.9259 50.3306 13.0537 49.529 13.0537ZM49.5141 11.4347C50.0386 11.4347 50.5236 11.3495 50.9689 11.1791C51.4142 11.0086 51.8002 10.7672 52.1268 10.4547C52.4533 10.1328 52.7057 9.76356 52.8838 9.34696C53.0718 8.92089 53.1659 8.45222 53.1659 7.94094C53.1659 7.42966 53.0718 6.96572 52.8838 6.54912C52.7057 6.12305 52.4533 5.75379 52.1268 5.44134C51.8002 5.11942 51.4142 4.87325 50.9689 4.70282C50.5236 4.5324 50.0386 4.44718 49.5141 4.44718C48.9896 4.44718 48.5047 4.5324 48.0594 4.70282C47.6239 4.87325 47.238 5.11942 46.9015 5.44134C46.5749 5.75379 46.3176 6.12305 46.1296 6.54912C45.9515 6.96572 45.8624 7.42966 45.8624 7.94094C45.8624 8.44275 45.9515 8.90669 46.1296 9.33276C46.3176 9.75883 46.5749 10.1328 46.9015 10.4547C47.2281 10.7672 47.614 11.0086 48.0594 11.1791C48.5047 11.3495 48.9896 11.4347 49.5141 11.4347Z" fill="#F1F1F5"/>
<path d="M61.8617 13.0537C61.0502 13.0537 60.303 12.9307 59.6202 12.6845C58.9472 12.4289 58.3584 12.0738 57.8537 11.6193C57.349 11.1554 56.9581 10.611 56.681 9.98606C56.4039 9.36116 56.2653 8.67945 56.2653 7.94094C56.2653 7.20242 56.4039 6.52071 56.681 5.89581C56.9581 5.27091 57.349 4.73123 57.8537 4.27675C58.3683 3.81282 58.967 3.45776 59.6499 3.21159C60.3327 2.95595 61.0799 2.82812 61.8914 2.82812C62.7721 2.82812 63.5638 2.96541 64.2665 3.23999C64.9134 3.4893 65.4666 3.84399 65.9259 4.30405C66.0034 4.38166 65.9981 4.50744 65.9179 4.58227L64.9836 5.4544C64.906 5.52677 64.7858 5.52562 64.7062 5.45548C64.3395 5.13217 63.9455 4.89075 63.5243 4.73123C63.0591 4.54186 62.5445 4.44718 61.9804 4.44718C61.4361 4.44718 60.9314 4.5324 60.4663 4.70282C60.0012 4.87325 59.6004 5.11469 59.2639 5.42714C58.9274 5.73959 58.6652 6.10885 58.4772 6.53491C58.299 6.96098 58.21 7.42966 58.21 7.94094C58.21 8.44275 58.299 8.90669 58.4772 9.33276C58.6652 9.75883 58.9274 10.1328 59.2639 10.4547C59.6004 10.7672 59.9962 11.0086 60.4515 11.1791C60.9067 11.3495 61.4114 11.4347 61.9656 11.4347C62.4802 11.4347 62.975 11.3589 63.45 11.2075C63.876 11.0661 64.2829 10.8443 64.6707 10.5422C64.7597 10.4729 64.8887 10.4851 64.9591 10.5733L65.8019 11.6302C65.8717 11.7178 65.8562 11.846 65.7647 11.9106C65.2584 12.2682 64.6799 12.5451 64.029 12.7413C63.3164 12.9496 62.594 13.0537 61.8617 13.0537ZM64.277 11.5713C64.1775 11.5581 64.1032 11.4733 64.1032 11.373V8.02732C64.1032 7.91686 64.1927 7.82732 64.3032 7.82732H65.7291C65.8395 7.82732 65.9291 7.91686 65.9291 8.02732V11.5616C65.9291 11.6824 65.8227 11.7757 65.7028 11.7598L64.277 11.5713Z" fill="#F1F1F5"/>
<path d="M67.1713 12.9117C67.0248 12.9117 66.928 12.7592 66.9904 12.6266L71.4782 3.08502C71.5112 3.01491 71.5817 2.97015 71.6592 2.97015H73.3056C73.383 2.97015 73.4534 3.0148 73.4864 3.0848L77.9885 12.6264C78.0511 12.759 77.9544 12.9117 77.8077 12.9117H76.2338C76.155 12.9117 76.0836 12.8655 76.0513 12.7936L72.208 4.23201C72.1486 4.09968 72.2454 3.9501 72.3905 3.9501H72.5449C72.6898 3.9501 72.7866 4.09945 72.7274 4.23176L68.8983 12.7934C68.8661 12.8654 68.7946 12.9117 68.7158 12.9117H67.1713ZM69.2929 10.611C69.1545 10.611 69.0579 10.4737 69.1046 10.3434L69.4807 9.29481C69.5092 9.21534 69.5846 9.16233 69.669 9.16233H74.9987C75.0831 9.16233 75.1585 9.21534 75.187 9.29481L75.5631 10.3434C75.6098 10.4737 75.5132 10.611 75.3748 10.611H69.2929Z" fill="#F1F1F5"/>
<path fill-rule="evenodd" clip-rule="evenodd" d="M2 0C0.895431 0 0 0.895431 0 2V12.8478C0 13.9524 0.895429 14.8478 2 14.8478H18.0252L21.3222 17.4456C21.9781 17.9624 22.941 17.4952 22.9411 16.6602L22.9412 12.8724C22.9413 12.8642 22.9414 12.856 22.9414 12.8478V2C22.9414 0.895431 22.046 0 20.9414 0H2ZM4.30132 6.45619C4.78263 6.45619 5.17282 6.84638 5.17282 7.3277C5.17282 8.01212 5.67035 8.79288 6.83451 9.45072C7.97659 10.0961 9.61363 10.5232 11.4705 10.5232C13.3273 10.5232 14.9643 10.0961 16.1064 9.45072C17.2706 8.79288 17.7681 8.01212 17.7681 7.3277C17.7681 6.84638 18.1583 6.45619 18.6396 6.45619H18.6959C19.1772 6.45619 19.5674 6.84638 19.5674 7.3277C19.5674 8.88942 18.4538 10.1422 17.013 10.9563C15.5502 11.7829 13.5886 12.2662 11.4705 12.2662C9.35232 12.2662 7.39072 11.7829 5.92788 10.9563C4.48714 10.1422 3.37349 8.88942 3.37349 7.3277C3.37349 6.84638 3.76368 6.45619 4.245 6.45619H4.30132Z" fill="url(#paint0_linear_336_20616)"/>
<path d="M79.8348 12.9117C79.7243 12.9117 79.6348 12.8222 79.6348 12.7117V11.75C79.6348 11.7023 79.6518 11.6562 79.6828 11.62L86.1113 4.10891C86.2131 3.98993 86.406 4.02885 86.4537 4.17801L86.4836 4.27145C86.5249 4.4005 86.4286 4.5324 86.2931 4.5324H79.9387C79.8282 4.5324 79.7387 4.44285 79.7387 4.3324V3.17015C79.7387 3.05969 79.8282 2.97015 79.9387 2.97015H88.1039C88.2144 2.97015 88.3039 3.05969 88.3039 3.17015V4.13184C88.3039 4.17953 88.2869 4.22566 88.2559 4.26189L81.8222 11.779C81.7215 11.8967 81.531 11.8602 81.481 11.7136L81.447 11.6141C81.4027 11.4843 81.4992 11.3495 81.6363 11.3495H88.2969C88.4073 11.3495 88.4969 11.439 88.4969 11.5495V12.7117C88.4969 12.8222 88.4073 12.9117 88.2969 12.9117H79.8348Z" fill="url(#paint1_linear_336_20616)"/>
<path d="M94.8692 13.0538C94.0577 13.0538 93.3105 12.9259 92.6277 12.6703C91.9449 12.4146 91.3511 12.0596 90.8464 11.6051C90.3417 11.1412 89.9508 10.6015 89.6737 9.98606C89.3966 9.36116 89.258 8.67945 89.258 7.94094C89.258 7.20242 89.3966 6.52545 89.6737 5.91001C89.9508 5.28512 90.3417 4.74543 90.8464 4.29096C91.3511 3.82702 91.9449 3.46723 92.6277 3.21159C93.3105 2.95595 94.0528 2.82812 94.8544 2.82812C95.6659 2.82812 96.4081 2.95595 97.081 3.21159C97.7639 3.46723 98.3577 3.82702 98.8624 4.29096C99.3671 4.74543 99.758 5.28512 100.035 5.91001C100.312 6.52545 100.451 7.20242 100.451 7.94094C100.451 8.67945 100.312 9.36116 100.035 9.98606C99.758 10.611 99.3671 11.1506 98.8624 11.6051C98.3577 12.0596 97.7639 12.4146 97.081 12.6703C96.4081 12.9259 95.6708 13.0538 94.8692 13.0538ZM94.8544 11.4347C95.3789 11.4347 95.8638 11.3495 96.3091 11.1791C96.7545 11.0086 97.1404 10.7672 97.467 10.4547C97.7936 10.1328 98.0459 9.76356 98.2241 9.34696C98.4121 8.92089 98.5061 8.45222 98.5061 7.94094C98.5061 7.42966 98.4121 6.96572 98.2241 6.54912C98.0459 6.12305 97.7936 5.75379 97.467 5.44134C97.1404 5.11942 96.7545 4.87325 96.3091 4.70282C95.8638 4.5324 95.3789 4.44718 94.8544 4.44718C94.3299 4.44718 93.8449 4.5324 93.3996 4.70282C92.9642 4.87325 92.5782 5.11942 92.2417 5.44134C91.9152 5.75379 91.6579 6.12305 91.4698 6.54912C91.2917 6.96572 91.2026 7.42966 91.2026 7.94094C91.2026 8.44275 91.2917 8.90669 91.4698 9.33276C91.6579 9.75883 91.9152 10.1328 92.2417 10.4547C92.5683 10.7672 92.9543 11.0086 93.3996 11.1791C93.8449 11.3495 94.3299 11.4347 94.8544 11.4347Z" fill="url(#paint2_linear_336_20616)"/>
<path d="M101.048 12.9117C100.902 12.9117 100.805 12.7592 100.867 12.6266L105.355 3.08502C105.388 3.01491 105.459 2.97015 105.536 2.97015H107.183C107.26 2.97015 107.33 3.0148 107.363 3.0848L111.866 12.6264C111.928 12.759 111.831 12.9117 111.685 12.9117H110.111C110.032 12.9117 109.961 12.8655 109.928 12.7936L106.085 4.23201C106.026 4.09968 106.122 3.9501 106.267 3.9501H106.422C106.567 3.9501 106.664 4.09945 106.604 4.23176L102.775 12.7934C102.743 12.8654 102.672 12.9117 102.593 12.9117H101.048ZM103.17 10.611C103.031 10.611 102.935 10.4737 102.982 10.3434L103.358 9.29481C103.386 9.21534 103.462 9.16233 103.546 9.16233H108.876C108.96 9.16233 109.035 9.21534 109.064 9.29481L109.44 10.3434C109.487 10.4737 109.39 10.611 109.252 10.611H103.17Z" fill="url(#paint3_linear_336_20616)"/>
<defs>
<linearGradient id="paint0_linear_336_20616" x1="0" y1="0" x2="23.3931" y2="0.620115" gradientUnits="userSpaceOnUse">
<stop stop-color="#5097FA"/>
<stop offset="1" stop-color="#5363FF"/>
</linearGradient>
<linearGradient id="paint1_linear_336_20616" x1="79.6348" y1="2.82813" x2="112.523" y2="4.95255" gradientUnits="userSpaceOnUse">
<stop stop-color="#5097FA"/>
<stop offset="1" stop-color="#5363FF"/>
</linearGradient>
<linearGradient id="paint2_linear_336_20616" x1="79.6348" y1="2.82813" x2="112.523" y2="4.95255" gradientUnits="userSpaceOnUse">
<stop stop-color="#5097FA"/>
<stop offset="1" stop-color="#5363FF"/>
</linearGradient>
<linearGradient id="paint3_linear_336_20616" x1="79.6348" y1="2.82813" x2="112.523" y2="4.95255" gradientUnits="userSpaceOnUse">
<stop stop-color="#5097FA"/>
<stop offset="1" stop-color="#5363FF"/>
</linearGradient>
</defs>
</svg>
